<?xml version="1.0" standalone="no"?>
<!DOCTYPE svg PUBLIC "-//W3C//DTD SVG 20010904//EN"
 "http://www.w3.org/TR/2001/REC-SVG-20010904/DTD/svg10.dtd">
<svg version="1.0" xmlns="http://www.w3.org/2000/svg"
 width="1920.000000pt" height="1080.000000pt" viewBox="0 0 1920.000000 1080.000000"
 preserveAspectRatio="xMidYMid meet">

<g transform="translate(0.000000,1080.000000) scale(0.100000,-0.100000)"
fill="#000000" stroke="none">
<path d="M4696 8199 c-29 -34 -34 -83 -12 -115 14 -19 12 -22 -24 -38 -44 -19
-80 -69 -80 -110 0 -17 11 -39 29 -57 61 -61 150 -28 216 81 39 65 59 75 69
35 5 -20 -1 -36 -30 -70 -20 -24 -34 -49 -32 -55 2 -6 17 8 34 30 l31 40 13
-30 c15 -36 44 -39 77 -8 28 26 29 18 2 -67 -11 -37 -17 -70 -14 -73 13 -13
33 31 55 117 29 119 83 180 120 136 26 -32 -19 -108 -73 -124 l-32 -9 31 -1
c73 -2 143 108 98 153 -23 24 -54 19 -87 -11 l-30 -28 6 25 c7 28 -6 56 -20
47 -6 -4 -13 -29 -16 -57 -13 -107 -97 -155 -97 -56 0 12 16 37 35 56 19 18
32 36 30 39 -3 2 -19 -8 -35 -24 l-29 -28 -19 23 c-26 33 -57 19 -87 -39 -34
-69 -86 -111 -135 -111 -46 0 -60 18 -60 75 0 29 8 45 34 71 19 19 41 34 49
34 14 0 14 4 1 35 -25 61 5 135 57 135 39 0 46 -21 21 -65 -14 -23 -17 -37
-10 -41 29 -18 52 78 26 104 -7 7 -29 12 -49 12 -29 0 -43 -7 -63 -31z"/>
<path d="M6438 8153 c-9 -10 -26 -38 -38 -63 -13 -25 -25 -47 -29 -50 -3 -3
-7 -18 -8 -33 -3 -44 -37 -102 -61 -105 -25 -4 -28 13 -10 53 8 19 8 31 0 50
-16 34 -44 32 -87 -6 -34 -31 -35 -31 -33 -8 4 36 -24 30 -34 -6 -4 -17 -23
-45 -41 -63 -28 -27 -41 -33 -68 -30 -25 2 -35 8 -37 23 -2 16 8 25 47 42 52
22 79 57 68 87 -18 46 -101 -4 -142 -83 -43 -86 -84 -94 -63 -14 19 75 -11 96
-65 46 l-29 -28 7 28 c8 29 -7 57 -31 57 -7 0 -29 -16 -49 -35 -30 -31 -35
-33 -35 -15 0 30 -29 24 -36 -7 -4 -16 -12 -38 -20 -49 -13 -22 -9 -64 7 -64
5 0 17 17 28 38 30 58 79 108 94 93 8 -8 8 -21 -1 -54 -18 -58 -19 -69 -7 -73
6 -2 25 21 43 51 22 36 40 55 53 55 10 0 19 -1 19 -3 0 -1 -4 -18 -10 -37 -5
-19 -7 -43 -4 -52 7 -23 56 -24 74 -3 12 14 15 13 32 -5 23 -25 64 -26 103 -2
26 16 31 17 41 4 9 -12 15 -9 34 19 38 56 73 89 92 89 17 0 19 -7 16 -57 -3
-52 -1 -58 18 -61 11 -2 31 6 44 16 24 20 24 20 35 -2 15 -31 57 -32 93 -1 30
25 31 25 37 5 17 -55 130 -26 166 43 7 13 -3 7 -26 -16 -31 -32 -42 -38 -74
-35 -27 2 -37 8 -39 23 -2 15 9 25 48 42 51 22 78 58 67 87 -18 45 -112 -11
-141 -83 -17 -44 -49 -71 -83 -71 -20 0 -23 5 -23 39 0 21 5 52 11 70 10 28
15 31 57 33 l47 1 -42 6 -42 6 29 54 c17 30 30 58 30 63 0 14 -16 9 -32 -9z
m-357 -141 c-10 -19 -69 -62 -85 -62 -13 0 24 59 51 79 31 25 51 15 34 -17z
m529 20 c0 -20 -31 -52 -67 -71 -36 -18 -30 11 11 53 37 40 56 46 56 18z"/>
<path d="M4315 8133 c-160 -34 -364 -135 -493 -243 -102 -86 -109 -111 -11
-41 175 125 379 222 574 272 107 27 108 28 55 27 -30 0 -86 -6 -125 -15z"/>
<path d="M5623 8133 c-23 -9 -15 -35 10 -31 12 2 22 9 22 17 0 16 -14 22 -32
14z"/>
<path d="M10305 8127 c-13 -10 -15 -16 -6 -21 17 -11 41 0 41 19 0 19 -11 19
-35 2z"/>
<path d="M5407 8073 c-4 -3 -7 -17 -7 -30 0 -33 -32 -92 -68 -126 -36 -35 -95
-36 -100 -2 -2 16 8 25 47 42 73 31 99 103 37 103 -71 0 -145 -129 -100 -174
42 -42 121 -1 168 86 17 32 35 58 39 58 17 0 19 -36 4 -78 -13 -34 -14 -48 -6
-58 16 -20 52 -17 81 5 24 19 24 19 36 0 14 -23 51 -25 78 -4 18 14 17 14 -13
9 -46 -9 -51 14 -18 82 15 30 24 58 21 61 -10 10 -38 -20 -53 -57 -19 -45 -62
-90 -86 -90 -16 0 -18 5 -13 28 19 75 19 80 -7 102 -14 12 -23 29 -20 36 5 14
-8 19 -20 7z m-86 -61 c-10 -19 -69 -62 -85 -62 -13 0 24 59 51 79 31 25 51
15 34 -17z"/>
<path d="M7243 8049 c-3 -16 -23 -49 -45 -72 -21 -23 -48 -52 -60 -64 -37 -42
-61 -17 -34 36 20 37 20 41 1 41 -8 0 -15 -4 -15 -8 0 -16 -71 -92 -86 -92 -8
0 -14 10 -14 26 0 73 102 163 117 104 6 -22 23 -27 23 -7 0 21 -22 37 -52 37
-63 0 -152 -124 -118 -165 17 -21 42 -19 73 5 21 17 26 18 31 5 8 -22 60 -19
81 5 18 20 18 20 29 -2 15 -31 77 -37 103 -10 30 31 50 33 67 6 22 -32 68 -32
108 1 36 31 46 31 50 3 4 -31 43 -36 72 -8 20 18 24 19 36 5 34 -41 101 3 137
90 10 25 23 43 28 42 9 -4 10 -18 3 -107 -3 -31 0 -35 24 -38 18 -2 37 7 62
28 20 18 36 36 36 40 0 5 -13 -5 -29 -21 -28 -27 -71 -40 -71 -20 0 5 7 25 16
46 14 33 14 39 -1 61 -8 13 -20 24 -25 24 -6 0 -10 9 -10 20 0 11 -4 20 -10
20 -9 0 -14 -14 -11 -33 3 -17 -55 -120 -78 -138 -34 -27 -49 -10 -32 37 18
49 5 55 -27 14 -57 -74 -92 -92 -92 -48 0 28 45 105 70 118 30 16 50 12 50
-10 0 -11 5 -20 11 -20 6 0 9 10 7 23 -2 16 -11 23 -32 25 -42 5 -73 -15 -118
-75 -21 -29 -42 -53 -46 -53 -7 0 -37 110 -37 137 0 25 -18 17 -29 -13 -12
-34 -87 -124 -103 -124 -6 0 -13 19 -17 43 -15 103 -19 117 -27 117 -5 0 -12
-14 -16 -31z m16 -96 c1 -38 -17 -43 -43 -14 -17 19 -17 21 5 51 21 27 24 29
31 13 3 -10 7 -33 7 -50z m165 26 c9 -47 7 -59 -7 -59 -8 0 -22 9 -31 19 -17
18 -17 21 -1 45 23 34 31 33 39 -5z m-204 -54 c7 -8 20 -15 28 -15 15 0 15 -1
0 -16 -20 -20 -58 -3 -58 26 0 24 13 26 30 5z m173 -4 c31 -16 34 -26 11 -35
-19 -7 -54 20 -54 41 0 8 3 13 8 11 4 -2 19 -10 35 -17z"/>
<path d="M9085 8060 c-3 -10 -1 -36 4 -57 22 -78 6 -107 -34 -63 -16 18 -17
22 -3 38 35 41 27 43 -10 2 -22 -25 -50 -55 -61 -67 -44 -49 -65 -17 -36 54
12 27 13 39 4 47 -7 7 -13 7 -15 1 -2 -5 -18 -34 -34 -62 -47 -82 -86 -65 -56
24 19 55 19 53 6 53 -5 0 -19 -18 -30 -40 -31 -60 -88 -83 -62 -25 17 38 15
84 -4 92 -43 16 -76 -46 -51 -95 14 -29 13 -32 -4 -48 -19 -17 -49 -13 -49 6
0 6 7 27 15 47 26 62 -2 57 -35 -7 -44 -87 -73 -92 -64 -10 6 51 4 61 -10 66
-11 4 -29 -2 -46 -14 l-29 -22 -3 33 c-4 45 -29 45 -79 0 -35 -32 -41 -34 -35
-15 6 18 4 22 -12 22 -16 0 -23 -13 -36 -65 -19 -77 -19 -75 -3 -75 8 0 22 18
32 40 10 23 35 55 54 72 l36 32 3 -31 c2 -17 -4 -47 -12 -67 -16 -39 -1 -65
18 -32 32 53 68 96 81 96 12 0 14 -10 9 -55 l-7 -55 28 0 c16 0 37 7 47 16 16
16 18 16 24 0 8 -22 53 -20 78 3 12 10 37 21 57 24 32 5 38 2 48 -19 13 -29
42 -31 67 -3 l18 20 8 -20 c9 -27 48 -27 79 -2 23 18 23 18 34 -3 16 -32 68
-33 106 -2 17 14 26 26 21 26 -9 0 -13 14 -28 118 -7 45 -19 54 -29 22z m-325
-34 c0 -21 -21 -76 -30 -76 -14 0 -21 50 -10 70 12 23 40 27 40 6z m309 -107
c19 -15 21 -23 12 -32 -16 -16 -45 3 -49 32 -4 26 6 26 37 0z"/>
<path d="M6797 8063 c-3 -5 -8 -35 -12 -68 -4 -33 -18 -98 -31 -144 -14 -46
-22 -86 -19 -90 13 -12 34 33 55 118 29 119 83 180 120 136 26 -32 -19 -108
-73 -124 l-32 -9 31 -1 c73 -2 143 108 98 153 -23 24 -54 19 -87 -11 -29 -28
-30 -28 -24 -5 9 36 -11 70 -26 45z"/>
<path d="M8096 8038 c-20 -28 -20 -58 -2 -84 13 -17 12 -21 -1 -36 -9 -10 -24
-18 -35 -18 -23 0 -24 30 -2 71 19 39 10 50 -18 22 -15 -15 -21 -35 -22 -65
-1 -41 1 -43 30 -46 20 -2 36 4 49 18 10 11 30 20 45 20 15 0 35 9 46 21 l19
21 -32 -18 c-40 -23 -48 -16 -27 24 21 43 15 86 -13 90 -13 2 -27 -5 -37 -20z
m54 -12 c0 -22 -21 -76 -30 -76 -20 0 -26 60 -8 78 16 16 38 15 38 -2z"/>
<path d="M9237 8039 c-15 -12 -38 -42 -51 -68 l-24 -46 20 -28 c33 -45 108
-31 153 29 26 34 16 33 -19 -2 -26 -26 -42 -34 -70 -34 -31 0 -36 3 -36 23 0
17 11 28 42 42 49 23 82 63 72 88 -9 23 -53 21 -87 -4z m66 5 c13 -13 -19 -57
-55 -75 -43 -22 -48 -14 -16 27 35 46 58 61 71 48z"/>
<path d="M9509 8022 c-41 -41 -55 -78 -45 -117 11 -44 80 -46 127 -4 l24 21
-28 -17 c-38 -22 -91 -17 -95 10 -2 15 9 25 48 42 30 13 54 31 61 47 30 65
-32 77 -92 18z m81 10 c0 -20 -31 -52 -67 -71 -36 -18 -30 11 11 53 37 40 56
46 56 18z"/>
<path d="M9709 8013 c-35 -32 -41 -34 -35 -15 6 18 4 22 -13 22 -13 0 -21 -6
-21 -17 0 -10 -6 -29 -13 -43 -17 -34 -20 -80 -4 -80 6 0 23 20 36 46 28 53
79 100 93 86 6 -6 3 -31 -8 -66 -18 -56 -12 -88 10 -52 67 109 96 123 93 44
-2 -51 -1 -53 25 -56 20 -2 32 5 52 31 14 19 26 38 26 43 0 5 -9 -4 -19 -20
-42 -63 -72 -51 -52 20 17 63 -19 85 -64 40 l-24 -24 -3 36 c-4 50 -27 52 -79
5z"/>
<path d="M10112 8025 c-55 -46 -66 -131 -21 -155 25 -14 79 2 105 31 l18 20 8
-20 c8 -24 56 -29 77 -8 11 10 14 10 18 0 9 -25 28 -12 52 33 28 53 79 100 93
86 6 -6 3 -31 -8 -66 -18 -56 -12 -88 10 -52 67 109 96 123 93 44 -2 -49 0
-53 21 -56 13 -2 32 4 42 13 16 15 18 14 23 -5 7 -26 44 -26 72 0 20 18 23 19
35 5 20 -25 59 -18 91 16 41 44 36 54 -7 12 -26 -27 -38 -33 -47 -24 -8 8 -8
20 2 47 18 49 5 55 -27 14 -57 -74 -92 -92 -92 -48 0 28 45 105 70 118 30 16
50 12 50 -10 0 -11 5 -20 11 -20 6 0 9 10 7 23 -2 17 -11 23 -36 25 -44 4 -86
-27 -123 -93 -46 -82 -83 -81 -60 1 17 63 -19 85 -64 40 l-24 -24 -3 36 c-4
50 -27 52 -79 5 -35 -32 -41 -34 -35 -15 6 18 4 22 -12 22 -15 0 -21 -9 -26
-34 -9 -46 -42 -86 -72 -86 -33 0 -32 39 2 97 14 25 23 47 20 50 -14 14 -38
-12 -65 -69 -40 -83 -99 -121 -131 -83 -17 21 3 88 35 121 34 34 49 31 41 -7
-4 -22 -2 -29 7 -26 6 2 12 17 12 33 0 40 -40 45 -83 9z"/>
<path d="M3525 7887 c9 -46 55 -106 100 -133 89 -52 199 -38 373 47 57 28 101
53 99 55 -2 2 -37 -9 -77 -26 -166 -68 -273 -87 -352 -61 -34 11 -88 61 -131
121 l-18 25 6 -28z"/>
<path d="M3385 7539 c-48 -49 -81 -71 -164 -110 -57 -27 -127 -56 -154 -64
-72 -21 -230 -19 -421 6 -273 36 -425 16 -511 -68 -44 -43 -81 -117 -95 -193
-11 -58 -14 -187 -4 -177 4 3 12 44 19 89 26 176 63 244 158 292 53 27 70 30
175 34 84 3 160 -2 267 -17 197 -28 345 -28 425 -1 143 48 378 210 369 253 -3
14 -17 4 -64 -44z"/>
<path d="M4111 7556 c-10 -11 -1 -20 41 -44 115 -64 272 -110 478 -139 164
-23 800 -23 1237 1 348 19 622 21 761 5 234 -25 390 -79 477 -164 70 -68 88
-126 83 -261 -5 -145 36 -114 49 37 10 114 -38 229 -122 293 -88 68 -255 123
-445 148 -116 15 -537 14 -775 -1 -271 -18 -998 -26 -1157 -12 -237 20 -459
70 -580 132 -30 15 -38 16 -47 5z"/>
<path d="M7081 7000 c0 -25 4 -65 8 -90 8 -42 9 -40 10 30 0 41 -4 82 -9 90
-7 11 -10 3 -9 -30z"/>
<path d="M17660 3818 c-23 -19 -135 -75 -602 -300 -82 -40 -148 -75 -148 -79
0 -18 20 -16 85 11 127 51 630 271 653 287 22 14 23 13 19 -4 -29 -97 -137
-637 -137 -678 2 -83 210 637 210 725 0 61 -34 77 -80 38z"/>
<path d="M17050 3158 c-316 -291 -675 -551 -952 -688 -208 -103 -391 -156
-578 -169 -52 -3 -95 -10 -95 -15 0 -32 197 -30 345 3 364 82 784 344 1170
731 104 104 182 191 168 190 -2 -1 -28 -24 -58 -52z"/>
<path d="M8038 2300 c-78 -24 -156 -101 -206 -203 -56 -114 -65 -210 -27 -291
48 -101 181 -102 283 -3 40 40 42 40 42 16 0 -61 69 -68 130 -13 27 25 45 34
58 30 11 -4 32 -2 47 4 23 9 26 8 21 -5 -3 -8 -9 -21 -12 -29 -3 -9 3 -17 16
-21 12 -4 23 -5 24 -3 2 1 20 29 40 60 45 69 89 108 122 108 20 0 24 -5 24
-27 0 -16 -5 -45 -10 -65 -15 -54 0 -78 49 -78 32 0 45 6 69 34 l30 34 6 -30
c16 -79 48 -66 87 33 27 70 62 112 87 107 19 -4 22 -50 7 -120 -6 -32 -4 -38
19 -53 21 -14 31 -15 58 -6 18 6 42 21 55 33 13 12 23 16 23 9 0 -6 11 -23 25
-36 41 -42 122 -30 193 29 31 27 32 27 32 6 0 -11 12 -33 26 -47 23 -23 31
-25 75 -20 l49 6 -16 -25 c-22 -33 -10 -42 25 -21 37 21 41 21 41 -1 0 -20
-39 -62 -58 -62 -6 0 -16 8 -21 18 -9 15 -12 15 -20 2 -14 -21 6 -40 41 -40
35 0 88 48 88 79 0 23 -31 44 -54 35 -23 -9 -20 4 10 43 l26 35 19 -31 c25
-42 66 -42 114 0 20 18 37 30 38 28 1 -2 7 -13 13 -24 14 -26 55 -30 94 -10
33 17 90 89 90 113 0 8 -13 -4 -30 -26 -35 -49 -74 -77 -95 -68 -21 8 -19 43
6 82 11 19 18 38 14 44 -13 21 -34 9 -70 -40 -41 -56 -90 -100 -111 -100 -9 0
-14 11 -14 33 1 75 84 187 140 187 30 0 49 -28 34 -51 -4 -7 1 -10 12 -7 31 6
25 60 -8 76 -64 30 -167 -38 -223 -147 -54 -107 -185 -134 -185 -39 0 61 74
168 116 168 16 0 20 -45 4 -55 -17 -10 -11 -25 9 -25 30 0 44 63 19 88 -17 17
-63 15 -99 -3 -31 -16 -89 -89 -89 -111 0 -19 -58 -82 -91 -100 -36 -18 -93
-18 -109 0 -25 31 -8 57 50 76 100 34 158 133 96 161 -56 26 -140 -30 -186
-124 -36 -74 -79 -121 -107 -115 -21 4 -22 31 -2 94 16 52 6 91 -27 106 -43
20 -92 -14 -131 -90 -31 -61 -33 -62 -33 -30 0 58 17 95 63 137 71 65 138 210
122 261 -25 80 -133 -70 -210 -290 -40 -116 -73 -175 -106 -185 -35 -11 -44 9
-26 57 22 57 21 101 -1 121 -34 31 -71 19 -135 -42 l-39 -36 7 37 c6 30 4 39
-9 44 -24 9 -43 -11 -50 -56 -7 -42 -35 -70 -73 -70 -28 0 -28 -2 -3 51 23 52
26 102 6 118 -8 7 -30 11 -48 9 -26 -2 -36 -10 -48 -35 -10 -22 -22 -33 -37
-33 -22 0 -50 -30 -95 -103 -67 -107 -201 -142 -248 -64 -57 93 6 315 121 422
48 45 86 62 115 51 24 -9 11 -60 -31 -124 -31 -45 -33 -53 -19 -59 25 -9 46 8
72 57 25 49 29 121 9 139 -20 16 -68 21 -99 11z m889 -142 c-19 -40 -47 -86
-62 -103 -25 -29 -26 -29 -19 -5 3 14 22 54 41 90 65 120 97 135 40 18z m-596
-155 c2 -32 -3 -57 -18 -93 -14 -33 -15 -34 -29 -16 -19 26 -18 76 2 104 18
26 44 29 45 5z m949 6 c0 -7 -9 -26 -20 -44 -20 -33 -103 -85 -116 -73 -9 10
32 73 67 103 32 26 69 34 69 14z m-1014 -140 c13 -15 12 -19 -17 -43 -17 -15
-39 -26 -48 -24 -25 5 -25 61 -1 115 l22 48 14 -39 c8 -22 21 -47 30 -57z"/>
<path d="M13310 2268 c-52 -57 -170 -308 -170 -361 0 -22 -34 -47 -63 -47
l-27 0 18 38 c27 53 33 87 22 116 -8 21 -16 26 -44 26 -67 0 -99 -87 -57 -156
l19 -32 -29 -28 c-24 -23 -33 -26 -47 -17 -26 17 -17 73 26 156 2 4 -5 7 -16
7 -22 0 -43 -22 -67 -70 -16 -33 -51 -69 -67 -70 -5 0 -8 17 -8 38 0 22 -9 65
-20 98 -12 32 -18 69 -15 82 4 17 1 22 -15 22 -13 0 -22 -9 -26 -27 -13 -59
-18 -68 -67 -116 -43 -42 -51 -55 -50 -84 1 -41 33 -79 73 -88 33 -7 98 17
106 40 4 9 20 22 37 29 30 12 32 11 47 -18 24 -48 73 -48 131 1 18 16 44 28
58 28 14 1 36 4 49 9 19 6 22 4 22 -22 0 -47 34 -82 81 -82 31 0 47 8 80 37
23 21 53 39 68 41 42 5 74 34 108 100 17 33 33 67 35 74 4 10 8 10 21 -1 22
-18 21 -45 -3 -110 -23 -60 -19 -87 15 -103 31 -14 66 -4 104 28 l31 26 11
-25 c22 -49 93 -61 158 -27 43 21 111 95 111 119 0 8 -12 -2 -27 -22 -44 -58
-90 -87 -140 -87 -37 0 -45 4 -53 26 -15 39 -14 40 42 59 69 22 107 50 125 92
17 42 9 71 -22 79 -59 15 -146 -49 -184 -136 -22 -50 -64 -94 -99 -105 -31 -9
-38 15 -18 65 26 64 21 98 -18 134 -21 19 -36 43 -38 60 -3 28 -4 29 -20 12
-10 -9 -17 -31 -16 -49 1 -41 -46 -141 -79 -167 -33 -26 -68 -27 -58 -2 4 9 9
36 12 58 4 33 1 46 -16 63 -26 26 -45 27 -71 1 -30 -30 -27 -100 5 -133 l26
-25 -32 -26 c-67 -57 -99 -17 -79 97 11 63 17 73 65 121 68 68 128 186 123
242 -4 51 -28 56 -68 12z m12 -111 c-27 -59 -80 -132 -88 -124 -7 7 37 99 74
157 44 69 53 50 14 -33z m-258 -185 c-1 -48 -31 -103 -45 -81 -15 24 -10 96 7
114 25 24 39 12 38 -33z m806 29 c0 -26 -41 -73 -84 -96 -62 -34 -61 5 3 74
41 44 81 55 81 22z m-1121 -133 c1 -43 -4 -45 -39 -21 -49 34 -51 44 -17 91
l32 44 12 -38 c6 -22 12 -56 12 -76z m571 44 c0 -54 -7 -67 -27 -51 -13 12
-18 80 -6 92 20 21 33 4 33 -41z m-638 -67 c16 -14 36 -25 44 -25 20 0 17 -18
-5 -30 -28 -14 -38 -13 -61 10 -18 18 -28 70 -14 70 3 0 19 -11 36 -25z"/>
<path d="M14705 2144 c-21 -21 -14 -38 16 -42 28 -3 65 30 54 47 -10 16 -51
13 -70 -5z"/>
<path d="M11070 1973 c-14 -106 -42 -227 -70 -307 -16 -47 -17 -61 -8 -68 31
-19 38 -6 83 164 39 145 66 195 121 224 l36 19 19 -24 c24 -29 24 -45 0 -97
-22 -48 -66 -83 -116 -91 -44 -7 -36 -23 12 -23 58 0 117 41 147 102 31 63 33
97 5 132 -31 40 -86 36 -133 -8 l-36 -33 0 42 c0 40 -11 55 -40 55 -4 0 -13
-39 -20 -87z"/>
<path d="M11466 2018 c-9 -12 -16 -28 -16 -35 0 -7 -10 -13 -23 -13 -24 0 -56
-28 -76 -67 -15 -29 -14 -106 1 -121 24 -24 76 -14 118 24 29 26 45 34 60 29
11 -3 34 0 50 9 29 14 30 14 30 -8 0 -32 28 -66 55 -66 14 0 35 13 53 34 l29
34 14 -32 c12 -27 19 -31 52 -30 28 1 47 10 71 33 l32 31 12 -34 c25 -67 113
-72 181 -10 44 39 51 41 51 16 0 -52 72 -57 126 -9 28 24 47 32 76 33 25 0 46
8 63 24 33 31 32 47 -1 21 -23 -18 -74 -30 -74 -17 0 2 9 23 20 47 23 52 26
102 6 118 -8 7 -30 11 -48 9 -26 -2 -36 -10 -48 -35 -10 -21 -22 -33 -36 -33
-25 0 -55 -31 -83 -87 -49 -98 -168 -135 -187 -58 -13 53 65 185 110 185 19 0
21 -31 5 -61 -9 -18 -8 -20 13 -17 18 2 24 10 26 36 4 42 -12 62 -52 62 -51 0
-101 -42 -136 -114 -33 -71 -79 -116 -116 -116 -31 0 -31 20 0 104 14 35 22
67 19 70 -19 19 -42 1 -68 -54 -32 -67 -79 -124 -98 -118 -21 8 -20 84 2 134
12 25 18 50 15 55 -14 24 -37 4 -63 -55 -28 -62 -43 -76 -82 -76 -23 0 -23 -2
1 51 22 50 26 99 8 117 -21 21 -75 15 -92 -10z m75 -15 c2 -32 -3 -57 -18 -93
-14 -33 -15 -34 -29 -16 -19 26 -18 76 2 104 18 26 44 29 45 5z m820 0 c2 -32
-3 -57 -18 -93 -14 -33 -15 -34 -29 -16 -19 26 -18 76 2 104 18 26 44 29 45 5z
m-885 -134 c13 -15 12 -19 -17 -43 -17 -15 -39 -26 -48 -24 -25 5 -25 61 -1
115 l22 48 14 -39 c8 -22 21 -47 30 -57z m820 0 c13 -15 12 -19 -17 -43 -17
-15 -39 -26 -48 -24 -25 5 -25 61 -1 115 l22 48 14 -39 c8 -22 21 -47 30 -57z"/>
<path d="M10555 2010 c-16 -10 -44 -36 -62 -57 l-32 -38 6 38 c6 38 5 39 -22
35 -25 -3 -30 -9 -46 -68 -19 -72 -61 -120 -104 -120 -32 0 -33 29 -5 102 25
65 25 78 3 78 -12 0 -30 -23 -53 -65 -18 -36 -46 -77 -62 -92 -23 -22 -30 -24
-44 -13 -19 17 -13 71 16 138 17 37 17 44 5 49 -9 3 -22 0 -29 -7 -21 -16 -46
-97 -46 -145 0 -79 64 -99 112 -35 l22 30 10 -32 c15 -44 57 -49 109 -14 34
23 37 24 37 7 0 -20 32 -39 38 -23 9 27 77 131 105 160 32 34 64 42 73 18 3
-8 -6 -47 -20 -88 -31 -89 -31 -84 -6 -91 15 -4 25 6 49 47 40 72 79 116 102
116 22 0 23 -13 7 -74 -33 -125 89 -129 153 -5 26 52 10 50 -19 -2 -25 -44
-66 -69 -83 -52 -7 7 -5 28 6 68 13 44 15 63 6 81 -16 37 -66 33 -109 -8 l-34
-33 7 33 c5 23 2 40 -9 57 -20 30 -41 31 -81 5z"/>
<path d="M14300 2023 c-8 -3 -36 -26 -62 -51 l-48 -46 0 32 c0 25 -4 32 -19
32 -26 0 -32 -10 -59 -114 -18 -71 -20 -91 -10 -98 22 -13 26 -10 59 52 40 75
99 140 127 140 29 0 28 -26 -2 -113 -22 -62 -23 -68 -7 -76 14 -8 27 5 72 72
37 56 62 83 77 85 26 4 29 -18 11 -81 -22 -80 51 -119 110 -59 l28 28 17 -29
c15 -27 20 -29 57 -24 23 3 52 16 65 28 24 22 24 22 24 2 0 -21 32 -42 38 -25
9 27 77 131 105 160 32 34 64 42 73 18 3 -8 -6 -47 -20 -88 -31 -89 -31 -84
-6 -91 15 -4 25 6 49 47 40 72 79 116 102 116 22 0 23 -13 7 -74 -33 -125 89
-129 153 -5 26 52 10 50 -19 -2 -25 -44 -66 -69 -83 -52 -7 7 -5 28 6 68 13
44 15 63 6 81 -16 37 -66 33 -109 -8 l-34 -33 7 35 c5 27 2 42 -13 59 -26 34
-63 22 -122 -39 l-49 -50 6 36 c6 34 5 35 -22 32 -25 -3 -30 -9 -41 -53 -17
-66 -32 -92 -67 -117 -18 -13 -36 -18 -52 -14 -36 9 -33 50 10 132 41 79 44
97 13 92 -18 -2 -33 -24 -68 -95 -50 -101 -74 -133 -101 -133 -25 0 -27 15
-10 82 19 69 10 91 -38 96 -25 3 -39 -4 -66 -31 l-34 -34 5 42 c8 57 -19 85
-66 68z"/>
</g>
</svg>
